<?xml version="1.0" standalone="no"?>
<!DOCTYPE svg PUBLIC "-//W3C//DTD SVG 20010904//EN"
 "http://www.w3.org/TR/2001/REC-SVG-20010904/DTD/svg10.dtd">
<svg version="1.0" xmlns="http://www.w3.org/2000/svg"
 width="92.000000pt" height="114.000000pt" viewBox="0 0 92.000000 114.000000"
 preserveAspectRatio="xMidYMid meet">

<g transform="translate(0.000000,114.000000) scale(0.100000,-0.100000)"
fill="#000000" stroke="none">
<path d="M350 1095 c-7 -8 -27 -17 -45 -21 -88 -16 -178 -99 -205 -190 -21
-70 -9 -189 25 -259 54 -109 296 -327 362 -327 28 0 53 25 53 52 0 9 30 38 68
65 104 76 204 182 238 250 40 82 40 170 1 237 -32 55 -62 76 -130 89 -61 13
-121 1 -159 -31 -19 -17 -21 -21 -8 -29 10 -7 20 -5 33 6 29 27 125 29 175 4
83 -42 108 -160 56 -264 -30 -59 -150 -181 -237 -241 l-57 -39 -73 56 c-98 75
-188 171 -217 232 -45 92 -27 197 42 248 42 31 137 35 183 8 31 -18 37 -19 42
-5 7 18 -20 40 -67 54 -47 13 -67 13 -127 -5 -90 -27 -140 -111 -131 -220 9
-104 79 -200 246 -333 88 -70 105 -93 70 -100 -20 -4 -181 122 -246 193 -29
32 -67 85 -85 119 -28 53 -32 71 -32 141 0 70 4 87 30 134 45 82 159 145 200
111 24 -20 65 3 65 34 0 39 -47 59 -70 31z"/>
<path d="M480 775 l0 -45 -45 0 -45 0 0 -40 0 -40 45 0 45 0 0 -45 0 -45 45 0
45 0 0 45 0 45 40 0 40 0 0 40 0 40 -40 0 -40 0 0 45 0 45 -45 0 -45 0 0 -45z"/>
<path d="M630 135 c0 -60 3 -75 15 -75 12 0 15 15 15 75 0 60 -3 75 -15 75
-12 0 -15 -15 -15 -75z"/>
<path d="M780 135 c0 -59 3 -75 14 -75 10 0 16 14 18 43 2 29 8 42 18 42 10 0
16 -13 18 -42 4 -57 32 -61 32 -5 0 49 -20 77 -49 69 -17 -4 -21 -1 -21 19 0
15 -6 24 -15 24 -12 0 -15 -15 -15 -75z"/>
<path d="M230 130 c0 -56 3 -70 15 -70 10 0 15 10 15 30 0 25 4 30 25 30 21 0
25 -5 25 -30 0 -20 5 -30 15 -30 12 0 15 14 15 70 0 56 -3 70 -15 70 -9 0 -15
-9 -15 -25 0 -20 -5 -25 -25 -25 -20 0 -25 5 -25 25 0 16 -6 25 -15 25 -12 0
-15 -14 -15 -70z"/>
<path d="M697 181 c-9 -35 5 -121 19 -121 10 0 14 13 14 40 0 22 5 40 10 40 6
0 10 7 10 15 0 8 -4 15 -10 15 -5 0 -10 7 -10 15 0 21 -27 19 -33 -4z"/>
<path d="M140 155 c0 -8 -7 -15 -15 -15 -8 0 -15 -7 -15 -15 0 -8 7 -15 15
-15 8 0 15 -7 15 -15 0 -8 7 -15 15 -15 8 0 15 7 15 15 0 8 7 15 15 15 8 0 15
7 15 15 0 8 -7 15 -15 15 -8 0 -15 7 -15 15 0 8 -7 15 -15 15 -8 0 -15 -7 -15
-15z"/>
<path d="M386 154 c-35 -35 1 -102 50 -92 32 6 28 28 -5 28 -17 0 -31 5 -31
10 0 6 16 10 35 10 27 0 35 4 35 18 0 40 -54 57 -84 26z m49 -14 c3 -5 -3 -10
-15 -10 -12 0 -18 5 -15 10 3 6 10 10 15 10 5 0 12 -4 15 -10z"/>
<path d="M507 152 c-37 -41 -7 -91 53 -90 l40 0 0 54 0 54 -38 0 c-25 0 -45
-7 -55 -18z m61 -35 c3 -22 -1 -27 -18 -27 -23 0 -35 22 -26 46 10 25 41 12
44 -19z"/>
</g>
</svg>
